<?xml version="1.0" encoding="UTF-8" standalone="no"?>
<svg
   version="1.1"
   id="svg2"
   xml:space="preserve"
   width="14.531219"
   height="11.095799"
   viewBox="0 0 14.531219 11.0958"
   sodipodi:docname="image_1.svg"
   inkscape:version="1.1.2 (b8e25be833, 2022-02-05)"
   xmlns:inkscape="http://www.inkscape.org/namespaces/inkscape"
   xmlns:sodipodi="http://sodipodi.sourceforge.net/DTD/sodipodi-0.dtd"
   xmlns="http://www.w3.org/2000/svg"
   xmlns:svg="http://www.w3.org/2000/svg"
   xmlns:rdf="http://www.w3.org/1999/02/22-rdf-syntax-ns#"
   xmlns:cc="http://creativecommons.org/ns#"
   xmlns:dc="http://purl.org/dc/elements/1.1/"><metadata
     id="metadata8"><rdf:RDF><cc:Work
         rdf:about=""><dc:format>image/svg+xml</dc:format><dc:type
           rdf:resource="http://purl.org/dc/dcmitype/StillImage" /></cc:Work></rdf:RDF></metadata><defs
     id="defs6" /><sodipodi:namedview
     pagecolor="#ffffff"
     bordercolor="#666666"
     borderopacity="1"
     objecttolerance="10"
     gridtolerance="10"
     guidetolerance="10"
     inkscape:pageopacity="0"
     inkscape:pageshadow="2"
     inkscape:window-width="2400"
     inkscape:window-height="1271"
     id="namedview4"
     inkscape:pagecheckerboard="0"
     showgrid="false"
     inkscape:zoom="35.006405"
     inkscape:cx="14.225968"
     inkscape:cy="1.6711227"
     inkscape:window-x="2391"
     inkscape:window-y="-173"
     inkscape:window-maximized="1"
     inkscape:current-layer="g10" /><g
     id="g10"
     inkscape:groupmode="layer"
     inkscape:label="147050P1305"
     transform="matrix(1.3333333,0,0,1.3333333,-8.5155102,-7.5604562)"><g
       id="g12"
       transform="matrix(0.0500001,0,0,0.0500001,6.0673005,5.3868246)"><text
         transform="matrix(0.97111609,0,0,1,122.4956,11.687142)"
         style="font-variant:normal;font-weight:normal;font-size:8.3712px;font-family:Helvetica;-inkscape-font-specification:Helvetica;writing-mode:lr-tb;fill:#525252;fill-opacity:1;fill-rule:nonzero;stroke:none"
         id="text16"><tspan
           x="0 4.5204473 9.0408945 13.552971 20.325272"
           y="0"
           sodipodi:role="line"
           id="tspan14">314mm</tspan></text><text
         transform="matrix(0.9711401,0,0,1,125.56783,25.273601)"
         style="font-variant:normal;font-weight:normal;font-size:8.3712px;font-family:Helvetica;-inkscape-font-specification:Helvetica;writing-mode:lr-tb;fill:#525252;fill-opacity:1;fill-rule:nonzero;stroke:none"
         id="text24"><tspan
           x="0 4.5204473"
           y="0"
           sodipodi:role="line"
           id="tspan18">12</tspan><tspan
           x="9.0408945"
           y="-4.3027964"
           id="tspan20">3</tspan><tspan
           x="13.561342"
           y="3.616358"
           id="tspan22">8</tspan></text><text
         transform="matrix(0.97127305,0,0,1,143.64962,25.273601)"
         style="font-variant:normal;font-weight:normal;font-size:8.3712px;font-family:Helvetica;-inkscape-font-specification:Helvetica;writing-mode:lr-tb;fill:#525252;fill-opacity:1;fill-rule:nonzero;stroke:none"
         id="text28"><tspan
           x="0"
           y="0"
           id="tspan26">&quot;</tspan></text><text
         transform="matrix(0,-0.97111107,1,0,12.301245,142.34875)"
         style="font-variant:normal;font-weight:normal;font-size:8.3712px;font-family:Helvetica;-inkscape-font-specification:Helvetica;writing-mode:lr-tb;fill:#525252;fill-opacity:1;fill-rule:nonzero;stroke:none"
         id="text32"><tspan
           x="0 4.5204473 9.0408945 15.804824"
           y="0"
           sodipodi:role="line"
           id="tspan30">75mm</tspan></text><text
         transform="matrix(0,-0.9711401,1,0,25.887701,143.79697)"
         style="font-variant:normal;font-weight:normal;font-size:8.3712px;font-family:Helvetica;-inkscape-font-specification:Helvetica;writing-mode:lr-tb;fill:#525252;fill-opacity:1;fill-rule:nonzero;stroke:none"
         id="text40"><tspan
           x="0"
           y="0"
           id="tspan34">2</tspan><tspan
           x="4.5204473 9.0408945"
           y="-4.3027964"
           sodipodi:role="line"
           id="tspan36">15</tspan><tspan
           x="13.561342 18.081789"
           y="3.616358"
           sodipodi:role="line"
           id="tspan38">16</tspan></text><text
         transform="matrix(0,-0.97127305,1,0,25.887701,121.19473)"
         style="font-variant:normal;font-weight:normal;font-size:8.3712px;font-family:Helvetica;-inkscape-font-specification:Helvetica;writing-mode:lr-tb;fill:#525252;fill-opacity:1;fill-rule:nonzero;stroke:none"
         id="text44"><tspan
           x="0"
           y="0"
           id="tspan42">&quot;</tspan></text><text
         transform="matrix(0.97111609,0,0,1,122.72774,81.19054)"
         style="font-variant:normal;font-weight:normal;font-size:8.3712px;font-family:Helvetica;-inkscape-font-specification:Helvetica;writing-mode:lr-tb;fill:#525252;fill-opacity:1;fill-rule:nonzero;stroke:none"
         id="text48"><tspan
           x="0 4.5204473 9.0408945 13.552971 20.325272"
           y="0"
           sodipodi:role="line"
           id="tspan46">300mm</tspan></text><text
         transform="matrix(0.9711401,0,0,1,121.27953,94.777002)"
         style="font-variant:normal;font-weight:normal;font-size:8.3712px;font-family:Helvetica;-inkscape-font-specification:Helvetica;writing-mode:lr-tb;fill:#525252;fill-opacity:1;fill-rule:nonzero;stroke:none"
         id="text56"><tspan
           x="0 4.5204473"
           y="0"
           sodipodi:role="line"
           id="tspan50">11</tspan><tspan
           x="9.0408945 13.561342"
           y="-4.3027964"
           sodipodi:role="line"
           id="tspan52">13</tspan><tspan
           x="18.081789 22.602238"
           y="3.616358"
           sodipodi:role="line"
           id="tspan54">16</tspan></text><text
         transform="matrix(0.97127305,0,0,1,148.40222,94.777002)"
         style="font-variant:normal;font-weight:normal;font-size:8.3712px;font-family:Helvetica;-inkscape-font-specification:Helvetica;writing-mode:lr-tb;fill:#525252;fill-opacity:1;fill-rule:nonzero;stroke:none"
         id="text60"><tspan
           x="0"
           y="0"
           id="tspan58">&quot;</tspan></text><g
         id="g62"
         transform="scale(1,-1)"><path
           d="M 157.398,-131.152 H 157 l -0.398,-0.102 -0.301,-0.098 -0.403,-0.199 -0.296,-0.301 -0.301,-0.3 -0.199,-0.301 -0.204,-0.301 -0.097,-0.398 -0.102,-0.399 v -0.402 l 0.102,-0.399 0.097,-0.3 0.102,-0.399 0.199,-0.301 0.602,-0.601 0.301,-0.199 0.296,-0.2 0.403,-0.101 H 158 l 0.301,0.101 0.398,0.2 0.301,0.199 0.602,0.601 0.199,0.301 0.097,0.399 0.102,0.3 0.102,0.399 v 0.402 l -0.204,0.797 -0.199,0.301 -0.301,0.301 -0.199,0.3 -0.301,0.301 -0.398,0.199 -0.301,0.098 -0.398,0.102 h -0.403 m 3.801,-4.2 -7.597,3.098"
           style="fill:none;stroke:#525252;stroke-width:0.51;stroke-linecap:butt;stroke-linejoin:miter;stroke-miterlimit:10;stroke-dasharray:none;stroke-opacity:1"
           id="path64" /></g><text
         transform="matrix(0,-0.97111107,1,0,160.3407,129.3613)"
         style="font-variant:normal;font-weight:normal;font-size:8.3712px;font-family:Helvetica;-inkscape-font-specification:Helvetica;writing-mode:lr-tb;fill:#525252;fill-opacity:1;fill-rule:nonzero;stroke:none"
         id="text68"><tspan
           x="0 4.5204473 9.0408945 15.804824"
           y="0"
           sodipodi:role="line"
           id="tspan66">14mm</tspan></text><text
         transform="matrix(0,-0.9711401,1,0,169.61599,130.82626)"
         style="font-variant:normal;font-weight:normal;font-size:8.3712px;font-family:Helvetica;-inkscape-font-specification:Helvetica;writing-mode:lr-tb;fill:#525252;fill-opacity:1;fill-rule:nonzero;stroke:none"
         id="text74"><tspan
           x="0"
           y="0"
           id="tspan70">9</tspan><tspan
           x="4.5204473 9.0408945"
           y="7.9191542"
           sodipodi:role="line"
           id="tspan72">16</tspan></text><text
         transform="matrix(0,-0.97127305,1,0,173.91879,117.26492)"
         style="font-variant:normal;font-weight:normal;font-size:8.3712px;font-family:Helvetica;-inkscape-font-specification:Helvetica;writing-mode:lr-tb;fill:#525252;fill-opacity:1;fill-rule:nonzero;stroke:none"
         id="text78"><tspan
           x="0"
           y="0"
           id="tspan76">&quot;</tspan></text><g
         id="g80"
         transform="scale(1,-1)"><path
           d="m 46,-32.152 8.5,0.8 v -1.699 l -8.5,0.899 m 178,0 -8.5,-0.899 v 1.699 l 8.5,-0.8"
           style="fill:none;stroke:#525252;stroke-width:0.51;stroke-linecap:butt;stroke-linejoin:miter;stroke-miterlimit:10;stroke-dasharray:none;stroke-opacity:1"
           id="path82" /></g><g
         id="g84"
         transform="scale(1,-1)"><path
           d="m 49.898,-101.652 8.5,0.8 v -1.699 l -8.5,0.899 m 170.102,0 -8.5,-0.899 v 1.699 l 8.5,-0.8"
           style="fill:none;stroke:#525252;stroke-width:0.51;stroke-linecap:butt;stroke-linejoin:miter;stroke-miterlimit:10;stroke-dasharray:none;stroke-opacity:1"
           id="path86" /></g><g
         id="g88"
         transform="scale(1,-1)"><path
           d="m 180.699,-154.852 0.903,-8.5 h -1.704 l 0.801,8.5 m 0,8 -0.801,8.5 h 1.704 l -0.903,-8.5"
           style="fill:none;stroke:#525252;stroke-width:0.51;stroke-linecap:butt;stroke-linejoin:miter;stroke-miterlimit:10;stroke-dasharray:none;stroke-opacity:1"
           id="path90" /></g><g
         id="g92"
         transform="scale(1,-1)"><path
           d="m 32.699,-112.254 0.801,-8.598 h -1.699 l 0.898,8.598 m 0,-42.598 -0.898,8.5 H 33.5 l -0.801,-8.5"
           style="fill:none;stroke:#525252;stroke-width:0.51;stroke-linecap:butt;stroke-linejoin:miter;stroke-miterlimit:10;stroke-dasharray:none;stroke-opacity:1"
           id="path94" /></g><g
         id="g96"
         transform="scale(1,-1)"><path
           d="m 220.051,-106.578 v -6.895"
           style="fill:none;stroke:#525252;stroke-width:0.51;stroke-linecap:round;stroke-linejoin:round;stroke-miterlimit:10;stroke-dasharray:43.2, 3.6, 3.6, 3.6;stroke-dashoffset:0;stroke-opacity:1"
           id="path98" /></g><g
         id="g100"
         transform="scale(1,-1)"><path
           d="m 49.973,-113.773 v 7.195"
           style="fill:none;stroke:#525252;stroke-width:0.51;stroke-linecap:round;stroke-linejoin:round;stroke-miterlimit:10;stroke-dasharray:43.2, 3.6, 3.6, 3.6;stroke-dashoffset:0;stroke-opacity:1"
           id="path102" /></g><g
         id="g104"
         transform="scale(1,-1)"><path
           d="m 125.5,-14.953 h -2 m 0,0 v -15.899 m 0,0 h 2 m 21,15.899 h 2 m 0,0 v -15.899 m 0,0 h -2 m -3.801,14.098 -7.301,-12.199 M 46,-43.754 v 14.402 m 178,-14.402 v 14.402 m -178,-2.8 h 178"
           style="fill:none;stroke:#525252;stroke-width:0.51;stroke-linecap:round;stroke-linejoin:round;stroke-miterlimit:10;stroke-dasharray:none;stroke-opacity:1"
           id="path106" /></g><g
         id="g108"
         transform="scale(1,-1)"><path
           d="m 121.199,-84.453 h -2 m 0,0 v -15.899 m 0,0 h 2 m 30,15.899 h 2.102 m 0,0 v -15.899 m 0,0 h -2.102 M 143,-86.254 135.602,-98.453 m -85.704,-5.301 v 4.902 M 220,-103.754 v 4.902 m -170.102,-2.8 H 220"
           style="fill:none;stroke:#525252;stroke-width:0.51;stroke-linecap:round;stroke-linejoin:round;stroke-miterlimit:10;stroke-dasharray:none;stroke-opacity:1"
           id="path110" /></g><g
         id="g112"
         transform="scale(1,-1)"><path
           d="m 163.5,-130.852 v -2.101 m 0,0 h 15.898 m 0,0 v 2.101 m -15.898,16.399 v 2.101 m 0,0 h 15.898 m 0,0 v -2.101 m -14,-8.199 12.102,-7.399 m 3.199,-24.801 v -17 m 0,17 v 8 m 0,0 v 40"
           style="fill:none;stroke:#525252;stroke-width:0.51;stroke-linecap:round;stroke-linejoin:round;stroke-miterlimit:10;stroke-dasharray:none;stroke-opacity:1"
           id="path114" /></g><g
         id="g116"
         transform="scale(1,-1)"><path
           d="m 15.5,-143.852 v -2 m 0,0 h 15.801 m 0,0 v 2 m -15.801,25.5 v 2 m 0,0 h 15.801 m 0,0 v -2 m -14,-8.3 12.199,-7.301 m 19.102,21.699 H 29.801 M 55,-154.852 H 29.801 m 2.898,42.598 v -42.598"
           style="fill:none;stroke:#525252;stroke-width:0.51;stroke-linecap:round;stroke-linejoin:round;stroke-miterlimit:10;stroke-dasharray:none;stroke-opacity:1"
           id="path118" /></g><path
         d="m 46,32.152 8.5,-0.8 v 1.699 m 169.5,-0.899 -8.5,0.899 v -1.699"
         style="fill:#525252;fill-opacity:1;fill-rule:nonzero;stroke:none"
         id="path120" /><path
         d="m 49.898,101.652 8.5,-0.8 v 1.699 M 220,101.652 l -8.5,0.899 v -1.699"
         style="fill:#525252;fill-opacity:1;fill-rule:nonzero;stroke:none"
         id="path122" /><path
         d="m 180.699,154.852 0.903,8.5 h -1.704 m 0.801,-16.5 -0.801,-8.5 h 1.704"
         style="fill:#525252;fill-opacity:1;fill-rule:nonzero;stroke:none"
         id="path124" /><path
         d="m 32.699,112.254 0.801,8.598 h -1.699 m 0.898,34 -0.898,-8.5 H 33.5"
         style="fill:#525252;fill-opacity:1;fill-rule:nonzero;stroke:none"
         id="path126" /><g
         id="g128"
         transform="scale(1,-1)"><path
           d="M 218.898,-50.551 219,-50.754 m 2,0 0.102,0.203 m -2.204,0 v 0 m 2.204,0 v 0.098 m -172.301,-0.098 0.097,-0.101 m 2,0 0.102,0.101 m -2.199,0.098 v -0.098 m 9.097,7.899 h -8 m 0,-7.899 h 8 m 0,0 h 154.204 m 0,7.899 H 57.898 m 162.102,0 h -7.898 m 0,-7.899 H 220 m -1.102,0 h 2.204 M 221,-50.754 h -2 m -170.199,0.203 h 0.5 m 1.597,-0.101 h -2 m 1,8 H 49.699 L 49,-42.754 l -0.602,-0.199 -0.699,-0.399 -0.5,-0.402 -0.5,-0.5 -0.398,-0.699 -0.199,-0.598 L 46,-46.254 v -0.699 l 0.102,-0.699 0.199,-0.7 0.398,-0.601 1,-1 0.699,-0.301 0.602,-0.199 0.699,-0.098 h 0.199 M 220,-42.652 h 0.199 l 0.699,-0.102 0.704,-0.199 0.597,-0.399 0.5,-0.402 0.5,-0.5 0.403,-0.699 0.199,-0.598 0.199,-0.703 v -0.699 l -0.398,-1.399 -0.403,-0.601 -1,-1 -0.597,-0.301 -0.704,-0.199 -0.699,-0.098 H 220"
           style="fill:none;stroke:#000000;stroke-width:0.709;stroke-linecap:round;stroke-linejoin:round;stroke-miterlimit:10;stroke-dasharray:none;stroke-opacity:1"
           id="path130" /></g><g
         id="g132"
         transform="scale(1,-1)"><path
           d="m 224,-142.953 v 30.699 m -8,0 v -30.699 m -170,30.699 v -30.699 m 7.898,0 v 30.699 m 4,-34.598 h -0.796 l -0.801,0.301 -0.602,0.297 -0.597,0.5 -0.5,0.602 -0.403,0.699 -0.199,0.801 -0.102,0.699 m -7.898,0 v -1.199 l 0.199,-1.2 0.301,-1.199 0.5,-1.203 0.5,-1.098 0.699,-1.101 0.801,-0.899 0.898,-0.902 1,-0.797 1,-0.703 1.102,-0.5 1.199,-0.5 1.199,-0.297 1.204,-0.203 1.296,-0.098 M 216,-142.953 v -0.699 l -0.301,-0.801 -0.301,-0.699 -0.5,-0.602 -0.597,-0.5 -0.699,-0.297 -0.801,-0.301 h -0.699 m 0,-8 1.199,0.098 1.199,0.203 1.199,0.297 1.199,0.5 1.102,0.5 1.102,0.703 0.898,0.797 0.898,0.902 0.801,0.899 0.699,1.101 0.5,1.098 0.5,1.203 0.301,1.199 0.199,1.2 0.102,1.199 M 57.898,-154.852 h 154.204 m 0,8 H 57.898 M 216,-112.254 h 8 m -170.102,0 H 46"
           style="fill:none;stroke:#000000;stroke-width:0.709;stroke-linecap:round;stroke-linejoin:round;stroke-miterlimit:10;stroke-dasharray:none;stroke-opacity:1"
           id="path134" /></g></g></g></svg>
